PathFileType	4	(X/Y/Z)	E:\Qualisys_Data\Carbon_Farble_Plate\Data\Amateur_Runner\S2\T1\S2T1V23_c3d.trc
DataRate	CameraRate	NumFrames	NumMarkers	Units	OrigDataRate	OrigDataStartFrame	OrigNumFrames
200.000000	200.000000	4	39	mm	200.000000	0	314
Frame#	Time	LSHO			RSHO			LICST			RICST			LASIS			LHEEL			RASIS			LTROC			RTROC			SACR			LTH1			LSK4			LTH2			LTH3			RHM5			LSK2			LTH4			RTH1			LTOE			RTH2			RTH3			RTH4			LLEP			RLEP			LSK1			LSK3			RSK1			LHM5			RSK2			LFT1			RSK3			RSK4			LLME			RLME			RTOE			RHEEL			RFT1			RFT2			LFT2			
		X1	Y1	Z1	X2	Y2	Z2	X3	Y3	Z3	X4	Y4	Z4	X5	Y5	Z5	X6	Y6	Z6	X7	Y7	Z7	X8	Y8	Z8	X9	Y9	Z9	X10	Y10	Z10	X11	Y11	Z11	X12	Y12	Z12	X13	Y13	Z13	X14	Y14	Z14	X15	Y15	Z15	X16	Y16	Z16	X17	Y17	Z17	X18	Y18	Z18	X19	Y19	Z19	X20	Y20	Z20	X21	Y21	Z21	X22	Y22	Z22	X23	Y23	Z23	X24	Y24	Z24	X25	Y25	Z25	X26	Y26	Z26	X27	Y27	Z27	X28	Y28	Z28	X29	Y29	Z29	X30	Y30	Z30	X31	Y31	Z31	X32	Y32	Z32	X33	Y33	Z33	X34	Y34	Z34	X35	Y35	Z35	X36	Y36	Z36	X37	Y37	Z37	X38	Y38	Z38	X39	Y39	Z39	

1	0	-3101.803955078125	1524.60595703125	-428.4577941894531	-3142.27001953125	1513.40869140625	-131.5224304199219	-3169.18798828125	1054.644165039062	-415.5182495117188	-3159.99951171875	1057.942626953125	-119.3273696899414	-3123.29150390625	999.0377197265625	-402.59619140625	-3712.869140625	404.8353881835938	-297.9553833007812	-3105.708740234375	1007.564514160156	-149.5069732666016	-3275.073486328125	960.968505859375	-414.4157104492188	-3233.33544921875	955.3182373046875	-99.40505981445312	-3261.480712890625	1102.12744140625	-270.0081481933594	-3255.542724609375	701.0482788085938	-414.7072143554688	-3586.731201171875	490.5175170898438	-383.5551147460938	-3331.1484375	736.4269409179688	-413.2152709960938	-3298.42333984375	608.3615112304688	-394.9718017578125	-2840.46533203125	168.6281280517578	-114.1285400390625	-3507.5166015625	548.38916015625	-401.0227661132812	-3373.50048828125	647.3934936523438	-388.0816650390625	-3017.253173828125	732.36328125	-108.2506637573242	-3694.877685546875	160.4003753662109	-305.6702270507812	-3088.525390625	703.8792114257812	-102.1361770629883	-2981.596435546875	639.3851318359375	-130.2436676025391	-3055.7880859375	613.5065307617188	-118.9903182983398	-3367.98681640625	590.3419189453125	-393.9610595703125	-3019.5078125	586.4676513671875	-120.6791763305664	-3460.3935546875	485.3235473632812	-398.7010803222656	-3540.68212890625	425.6056213378906	-388.6073303222656	-2972.269775390625	467.485595703125	-113.9089126586914	-3734.561279296875	204.7430419921875	-364.1292114257812	-3050.140869140625	459.3408508300781	-102.6673126220703	-3727.782470703125	390.8083801269531	-263.9543762207031	-2960.896728515625	366.3194885253906	-121.7034683227539	-3041.247314453125	361.4714965820312	-114.7357025146484	-3701.64404296875	348.0156555175781	-355.67333984375	-2976.147705078125	173.9789886474609	-145.9537048339844	-2794.438720703125	209.8475036621094	-173.9294738769531	-3029.326416015625	139.0920715332031	-203.78515625	-3004.309814453125	121.5155181884766	-233.6341094970703	-3016.5166015625	115.7212753295898	-178.0487060546875	-3739.392822265625	396.3600158691406	-317.4164733886719
2	0.005	-3081.9072265625	1524.431640625	-427.9418640136719	-3123.33740234375	1512.372924804688	-131.0902862548828	-3150.072021484375	1055.068115234375	-416.3340759277344	-3140.949951171875	1056.3173828125	-119.9469299316406	-3103.69921875	999.0765380859376	-402.67578125	-3697.04248046875	413.4798583984375	-296.9059753417969	-3085.879150390625	1006.510375976562	-149.7461395263672	-3255.47607421875	960.1599731445312	-415.738525390625	-3215.583984375	953.2428588867188	-100.8427200317383	-3242.1826171875	1101.586303710938	-270.4207153320312	-3233.072509765625	699.8474731445312	-413.5310363769531	-3567.669677734375	495.2826538085938	-383.7566223144531	-3309.127685546875	734.7650146484375	-414.7919311523438	-3276.130615234375	607.4931030273438	-395.1753540039062	-2810.988037109375	171.1041412353516	-117.0399169921875	-3486.771728515625	551.5773315429688	-401.5584411621094	-3351.552978515625	646.1043090820312	-389.5446472167969	-2999.5166015625	727.4192504882812	-108.0985717773438	-3683.021240234375	168.5977172851562	-309.0837707519531	-3071.58447265625	700.5474243164062	-100.953742980957	-2966.022705078125	634.673828125	-130.0333099365234	-3040.18896484375	609.7228393554688	-119.4472961425781	-3346.39208984375	589.20654296875	-395.7135009765625	-3003.61474609375	582.5933227539062	-121.4215087890625	-3441.663818359375	486.6016845703125	-399.6535949707031	-3524.87890625	430.6458740234375	-389.7183837890625	-2951.9921875	466.0077819824219	-115.4124069213867	-3722.29345703125	214.3432006835938	-365.7093200683594	-3031.0556640625	455.5970153808594	-102.0064163208008	-3712.4150390625	398.840087890625	-263.0299377441406	-2938.574462890625	364.7966613769531	-123.3838653564453	-3018.66796875	358.8564147949219	-114.8710403442383	-3687.508056640625	357.5219116210938	-355.595703125	-2947.855224609375	171.8133544921875	-147.6810150146484	-2767.89599609375	215.2051086425781	-176.4903106689453	-2999.307373046875	134.9721374511719	-204.6869659423828	-2974.18798828125	119.0092163085938	-235.4106292724609	-2985.2783203125	112.3745727539062	-180.0865478515625	-3729.7177734375	406.3044738769531	-315.9221801757812
3	0.01	-3061.507568359375	1523.626220703125	-427.2941589355469	-3103.93310546875	1511.540771484375	-130.7657318115234	-3130.7548828125	1054.784790039062	-416.2958679199219	-3122.634765625	1054.906982421875	-119.9651184082031	-3083.7607421875	998.3388671875	-403.0399169921875	-3680.455322265625	421.947509765625	-296.329833984375	-3065.88525390625	1004.9755859375	-149.9910888671875	-3235.44189453125	959.3060302734376	-416.8471374511719	-3197.166259765625	950.4338989257812	-101.4697799682617	-3223.333740234375	1100.569702148438	-270.4306945800781	-3210.99462890625	698.2679443359375	-414.5855407714844	-3549.104248046875	500.9994812011719	-384.6709289550781	-3286.94677734375	732.65283203125	-416.0828247070312	-3254.0732421875	606.3129272460938	-396.0046081542969	-2784.029296875	174.1297607421875	-119.6629257202148	-3465.152099609375	553.9677124023438	-402.1683654785156	-3329.8125	644.7683715820312	-391.0302429199219	-2981.686767578125	723.2847290039062	-107.5955581665039	-3672.017822265625	176.4588928222656	-312.3794555664062	-3053.783447265625	696.720458984375	-100.6566543579102	-2950.061279296875	629.4359130859375	-130.0435485839844	-3024.797607421875	605.7618408203125	-119.4685134887695	-3324.268798828125	587.8026123046875	-396.7593383789062	-2986.138671875	578.8668823242188	-121.8705596923828	-3422.763427734375	487.5508422851562	-401.2021179199219	-3508.65478515625	434.6969299316406	-390.9716796875	-2932.213623046875	464.0851745605469	-116.3735427856445	-3710.118896484375	224.8146057128906	-368.3504333496094	-3010.180908203125	452.3872375488281	-103.0621566772461	-3695.0234375	407.2773742675781	-262.6964111328125	-2916.98779296875	363.839599609375	-125.596435546875	-2996.453857421875	355.8776245117188	-115.7704696655273	-3672.720947265625	366.0206604003906	-355.9436645507812	-2921.0546875	170.578369140625	-149.2800445556641	-2742.631103515625	220.1338043212891	-179.3722076416016	-2970.794677734375	131.8765258789062	-206.2796936035156	-2945.6259765625	116.6272125244141	-236.8763122558594	-2956.673828125	109.1205444335938	-181.5842895507812	-3716.2294921875	416.4686889648438	-314.7225646972656
4	0.015	-3041.825927734375	1522.4306640625	-426.5503234863281	-3084.58984375	1509.601928710938	-130.0365753173828	-3111.9609375	1054.433715820312	-416.6184692382812	-3103.22265625	1052.455078125	-120.0522918701172	-3064.642333984375	998.0161743164062	-403.7123413085938	-3666.015380859375	431.2375183105469	-295.6100769042969	-3046.588623046875	1003.005554199219	-150.1524810791016	-3215.43994140625	957.3946533203124	-417.7559509277344	-3179.008056640625	947.9306640625	-102.707633972168	-3204.018310546875	1099.0400390625	-270.6614990234375	-3189.346923828125	697.062255859375	-414.735107421875	-3528.614013671875	504.8614807128906	-384.5027770996094	-3265.096435546875	730.856201171875	-417.3375244140625	-3231.400390625	604.0380859375	-397.0176391601562	-2757.788330078125	175.9768981933594	-122.0576248168945	-3443.65576171875	556.1497192382812	-402.8643493652344	-3306.92138671875	641.6168823242188	-391.7392272949219	-2964.224609375	718.3718872070312	-106.3674163818359	-3658.174072265625	185.9952697753906	-315.3501281738281	-3037.060546875	693.2737426757812	-99.63743591308594	-2933.57568359375	624.1189575195312	-129.7455749511719	-3009.6796875	601.62451171875	-119.5559234619141	-3302.23388671875	586.138916015625	-398.4644775390625	-2969.6982421875	575.0794067382812	-122.0272674560547	-3403.3251953125	488.0564270019531	-402.145751953125	-3488.91162109375	437.2398986816406	-391.0802917480469	-2911.939453125	463.4078369140625	-118.0073623657227	-3696.572021484375	234.9716033935547	-371.0245971679688	-2989.058349609375	449.7676086425781	-103.4336776733398	-3679.412841796875	414.7665100097656	-262.3743896484375	-2895.869873046875	362.8145446777344	-127.3925170898438	-2974.6884765625	353.2389526367188	-116.3401794433594	-3656.87939453125	375.8205871582031	-355.7203674316406	-2894.23974609375	169.2689056396484	-150.3189849853516	-2718.433349609375	223.9180603027344	-182.1996612548828	-2944.601806640625	129.8189544677734	-207.4901885986328	-2919.9248046875	115.5475692749023	-239.1195068359375	-2929.651611328125	106.4483642578125	-182.9821929931641	-3694.646484375	422.1372985839844	-312.0728454589844
